<svg id="visual" viewBox="0 0 1920 400" width="1920" height="400" xmlns="http://www.w3.org/2000/svg" xmlns:xlink="http://www.w3.org/1999/xlink" version="1.1"><path d="M0 57L14.5 57.7C29 58.3 58 59.7 87.2 57.7C116.3 55.7 145.7 50.3 174.8 53C204 55.7 233 66.3 262 79.7C291 93 320 109 349 107.7C378 106.3 407 87.7 436.2 89C465.3 90.3 494.7 111.7 523.8 107C553 102.3 582 71.7 611 60.3C640 49 669 57 698 65C727 73 756 81 785.2 80.3C814.3 79.7 843.7 70.3 872.8 72.3C902 74.3 931 87.7 960 90.3C989 93 1018 85 1047.2 93C1076.3 101 1105.7 125 1134.8 129C1164 133 1193 117 1222 105.7C1251 94.3 1280 87.7 1309 78.3C1338 69 1367 57 1396.2 62.3C1425.3 67.7 1454.7 90.3 1483.8 96.3C1513 102.3 1542 91.7 1571 90.3C1600 89 1629 97 1658 90.3C1687 83.7 1716 62.3 1745.2 73C1774.3 83.7 1803.7 126.3 1832.8 143C1862 159.7 1891 150.3 1905.5 145.7L1920 141L1920 0L1905.5 0C1891 0 1862 0 1832.8 0C1803.7 0 1774.3 0 1745.2 0C1716 0 1687 0 1658 0C1629 0 1600 0 1571 0C1542 0 1513 0 1483.8 0C1454.7 0 1425.3 0 1396.2 0C1367 0 1338 0 1309 0C1280 0 1251 0 1222 0C1193 0 1164 0 1134.8 0C1105.7 0 1076.3 0 1047.2 0C1018 0 989 0 960 0C931 0 902 0 872.8 0C843.7 0 814.3 0 785.2 0C756 0 727 0 698 0C669 0 640 0 611 0C582 0 553 0 523.8 0C494.7 0 465.3 0 436.2 0C407 0 378 0 349 0C320 0 291 0 262 0C233 0 204 0 174.8 0C145.7 0 116.3 0 87.2 0C58 0 29 0 14.5 0L0 0Z" fill="#3d3d3d"></path><path d="M0 73L14.5 78.3C29 83.7 58 94.3 87.2 92.3C116.3 90.3 145.7 75.7 174.8 77C204 78.3 233 95.7 262 111C291 126.3 320 139.7 349 136.3C378 133 407 113 436.2 114.3C465.3 115.7 494.7 138.3 523.8 134.3C553 130.3 582 99.7 611 89C640 78.3 669 87.7 698 95C727 102.3 756 107.7 785.2 105.7C814.3 103.7 843.7 94.3 872.8 99.7C902 105 931 125 960 128.3C989 131.7 1018 118.3 1047.2 123C1076.3 127.7 1105.7 150.3 1134.8 157C1164 163.7 1193 154.3 1222 145C1251 135.7 1280 126.3 1309 115C1338 103.7 1367 90.3 1396.2 95C1425.3 99.7 1454.7 122.3 1483.8 129.7C1513 137 1542 129 1571 125.7C1600 122.3 1629 123.7 1658 117.7C1687 111.7 1716 98.3 1745.2 107.7C1774.3 117 1803.7 149 1832.8 160.3C1862 171.7 1891 162.3 1905.5 157.7L1920 153L1920 139L1905.5 143.7C1891 148.3 1862 157.7 1832.8 141C1803.7 124.3 1774.3 81.7 1745.2 71C1716 60.3 1687 81.7 1658 88.3C1629 95 1600 87 1571 88.3C1542 89.7 1513 100.3 1483.8 94.3C1454.7 88.3 1425.3 65.7 1396.2 60.3C1367 55 1338 67 1309 76.3C1280 85.7 1251 92.3 1222 103.7C1193 115 1164 131 1134.8 127C1105.7 123 1076.3 99 1047.2 91C1018 83 989 91 960 88.3C931 85.7 902 72.3 872.8 70.3C843.7 68.3 814.3 77.7 785.2 78.3C756 79 727 71 698 63C669 55 640 47 611 58.3C582 69.7 553 100.3 523.8 105C494.7 109.7 465.3 88.3 436.2 87C407 85.7 378 104.3 349 105.7C320 107 291 91 262 77.7C233 64.3 204 53.7 174.8 51C145.7 48.3 116.3 53.7 87.2 55.7C58 57.7 29 56.3 14.5 55.7L0 55Z" fill="#565656"></path><path d="M0 117L14.5 120.3C29 123.7 58 130.3 87.2 129C116.3 127.7 145.7 118.3 174.8 122.3C204 126.3 233 143.7 262 159.7C291 175.7 320 190.3 349 185C378 179.7 407 154.3 436.2 150.3C465.3 146.3 494.7 163.7 523.8 161C553 158.3 582 135.7 611 125C640 114.3 669 115.7 698 122.3C727 129 756 141 785.2 141.7C814.3 142.3 843.7 131.7 872.8 133.7C902 135.7 931 150.3 960 153C989 155.7 1018 146.3 1047.2 151.7C1076.3 157 1105.7 177 1134.8 185.7C1164 194.3 1193 191.7 1222 189.7C1251 187.7 1280 186.3 1309 180.3C1338 174.3 1367 163.7 1396.2 164.3C1425.3 165 1454.7 177 1483.8 175.7C1513 174.3 1542 159.7 1571 155.7C1600 151.7 1629 158.3 1658 152.3C1687 146.3 1716 127.7 1745.2 142.3C1774.3 157 1803.7 205 1832.8 220.3C1862 235.7 1891 218.3 1905.5 209.7L1920 201L1920 151L1905.5 155.7C1891 160.3 1862 169.7 1832.8 158.3C1803.7 147 1774.3 115 1745.2 105.7C1716 96.3 1687 109.7 1658 115.7C1629 121.7 1600 120.3 1571 123.7C1542 127 1513 135 1483.8 127.7C1454.7 120.3 1425.3 97.7 1396.2 93C1367 88.3 1338 101.7 1309 113C1280 124.3 1251 133.7 1222 143C1193 152.3 1164 161.7 1134.8 155C1105.7 148.3 1076.3 125.7 1047.2 121C1018 116.3 989 129.7 960 126.3C931 123 902 103 872.8 97.7C843.7 92.3 814.3 101.7 785.2 103.7C756 105.7 727 100.3 698 93C669 85.7 640 76.3 611 87C582 97.7 553 128.3 523.8 132.3C494.7 136.3 465.3 113.7 436.2 112.3C407 111 378 131 349 134.3C320 137.7 291 124.3 262 109C233 93.7 204 76.3 174.8 75C145.7 73.7 116.3 88.3 87.2 90.3C58 92.3 29 81.7 14.5 76.3L0 71Z" fill="#6f6f6f"></path><path d="M0 157L14.5 158.3C29 159.7 58 162.3 87.2 163C116.3 163.7 145.7 162.3 174.8 165.7C204 169 233 177 262 193.7C291 210.3 320 235.7 349 240.3C378 245 407 229 436.2 224.3C465.3 219.7 494.7 226.3 523.8 219.7C553 213 582 193 611 178.3C640 163.7 669 154.3 698 165C727 175.7 756 206.3 785.2 207.7C814.3 209 843.7 181 872.8 181C902 181 931 209 960 217.7C989 226.3 1018 215.7 1047.2 212.3C1076.3 209 1105.7 213 1134.8 213.7C1164 214.3 1193 211.7 1222 218.3C1251 225 1280 241 1309 244.3C1338 247.7 1367 238.3 1396.2 233.7C1425.3 229 1454.7 229 1483.8 231C1513 233 1542 237 1571 237.7C1600 238.3 1629 235.7 1658 220.3C1687 205 1716 177 1745.2 187C1774.3 197 1803.7 245 1832.8 263.7C1862 282.3 1891 271.7 1905.5 266.3L1920 261L1920 199L1905.5 207.7C1891 216.3 1862 233.7 1832.8 218.3C1803.7 203 1774.3 155 1745.2 140.3C1716 125.7 1687 144.3 1658 150.3C1629 156.3 1600 149.7 1571 153.7C1542 157.7 1513 172.3 1483.8 173.7C1454.7 175 1425.3 163 1396.2 162.3C1367 161.7 1338 172.3 1309 178.3C1280 184.3 1251 185.7 1222 187.7C1193 189.7 1164 192.3 1134.8 183.7C1105.7 175 1076.3 155 1047.2 149.7C1018 144.3 989 153.7 960 151C931 148.3 902 133.7 872.8 131.7C843.7 129.7 814.3 140.3 785.2 139.7C756 139 727 127 698 120.3C669 113.7 640 112.3 611 123C582 133.7 553 156.3 523.8 159C494.7 161.7 465.3 144.3 436.2 148.3C407 152.3 378 177.7 349 183C320 188.3 291 173.7 262 157.7C233 141.7 204 124.3 174.8 120.3C145.7 116.3 116.3 125.7 87.2 127C58 128.3 29 121.7 14.5 118.3L0 115Z" fill="#8a8a8a"></path><path d="M0 173L14.5 177.7C29 182.3 58 191.7 87.2 198.3C116.3 205 145.7 209 174.8 212.3C204 215.7 233 218.3 262 232.3C291 246.3 320 271.7 349 273C378 274.3 407 251.7 436.2 245C465.3 238.3 494.7 247.7 523.8 247C553 246.3 582 235.7 611 222.3C640 209 669 193 698 205C727 217 756 257 785.2 256.3C814.3 255.7 843.7 214.3 872.8 209.7C902 205 931 237 960 251.7C989 266.3 1018 263.7 1047.2 262.3C1076.3 261 1105.7 261 1134.8 259.7C1164 258.3 1193 255.7 1222 263C1251 270.3 1280 287.7 1309 286.3C1338 285 1367 265 1396.2 259C1425.3 253 1454.7 261 1483.8 265.7C1513 270.3 1542 271.7 1571 269C1600 266.3 1629 259.7 1658 247.7C1687 235.7 1716 218.3 1745.2 230.3C1774.3 242.3 1803.7 283.7 1832.8 303.7C1862 323.7 1891 322.3 1905.5 321.7L1920 321L1920 259L1905.5 264.3C1891 269.7 1862 280.3 1832.8 261.7C1803.7 243 1774.3 195 1745.2 185C1716 175 1687 203 1658 218.3C1629 233.7 1600 236.3 1571 235.7C1542 235 1513 231 1483.8 229C1454.7 227 1425.3 227 1396.2 231.7C1367 236.3 1338 245.7 1309 242.3C1280 239 1251 223 1222 216.3C1193 209.7 1164 212.3 1134.8 211.7C1105.7 211 1076.3 207 1047.2 210.3C1018 213.7 989 224.3 960 215.7C931 207 902 179 872.8 179C843.7 179 814.3 207 785.2 205.7C756 204.3 727 173.7 698 163C669 152.3 640 161.7 611 176.3C582 191 553 211 523.8 217.7C494.7 224.3 465.3 217.7 436.2 222.3C407 227 378 243 349 238.3C320 233.7 291 208.3 262 191.7C233 175 204 167 174.8 163.7C145.7 160.3 116.3 161.7 87.2 161C58 160.3 29 157.7 14.5 156.3L0 155Z" fill="#a6a6a6"></path><path d="M0 225L14.5 223.7C29 222.3 58 219.7 87.2 225C116.3 230.3 145.7 243.7 174.8 251.7C204 259.7 233 262.3 262 272.3C291 282.3 320 299.7 349 295.7C378 291.7 407 266.3 436.2 259C465.3 251.7 494.7 262.3 523.8 261.7C553 261 582 249 611 235.7C640 222.3 669 207.7 698 223.7C727 239.7 756 286.3 785.2 289C814.3 291.7 843.7 250.3 872.8 244.3C902 238.3 931 267.7 960 279.7C989 291.7 1018 286.3 1047.2 286.3C1076.3 286.3 1105.7 291.7 1134.8 293.7C1164 295.7 1193 294.3 1222 297.7C1251 301 1280 309 1309 307C1338 305 1367 293 1396.2 293C1425.3 293 1454.7 305 1483.8 309.7C1513 314.3 1542 311.7 1571 303.7C1600 295.7 1629 282.3 1658 271.7C1687 261 1716 253 1745.2 266.3C1774.3 279.7 1803.7 314.3 1832.8 330.3C1862 346.3 1891 343.7 1905.5 342.3L1920 341L1920 319L1905.5 319.7C1891 320.3 1862 321.7 1832.8 301.7C1803.7 281.7 1774.3 240.3 1745.2 228.3C1716 216.3 1687 233.7 1658 245.7C1629 257.7 1600 264.3 1571 267C1542 269.7 1513 268.3 1483.8 263.7C1454.7 259 1425.3 251 1396.2 257C1367 263 1338 283 1309 284.3C1280 285.7 1251 268.3 1222 261C1193 253.7 1164 256.3 1134.8 257.7C1105.7 259 1076.3 259 1047.2 260.3C1018 261.7 989 264.3 960 249.7C931 235 902 203 872.8 207.7C843.7 212.3 814.3 253.7 785.2 254.3C756 255 727 215 698 203C669 191 640 207 611 220.3C582 233.7 553 244.3 523.8 245C494.7 245.7 465.3 236.3 436.2 243C407 249.7 378 272.3 349 271C320 269.7 291 244.3 262 230.3C233 216.3 204 213.7 174.8 210.3C145.7 207 116.3 203 87.2 196.3C58 189.7 29 180.3 14.5 175.7L0 171Z" fill="#c3c3c3"></path><path d="M0 241L14.5 243.7C29 246.3 58 251.7 87.2 259C116.3 266.3 145.7 275.7 174.8 283.7C204 291.7 233 298.3 262 308.3C291 318.3 320 331.7 349 325C378 318.3 407 291.7 436.2 285.7C465.3 279.7 494.7 294.3 523.8 296.3C553 298.3 582 287.7 611 275C640 262.3 669 247.7 698 258.3C727 269 756 305 785.2 305.7C814.3 306.3 843.7 271.7 872.8 269.7C902 267.7 931 298.3 960 307C989 315.7 1018 302.3 1047.2 303.7C1076.3 305 1105.7 321 1134.8 327.7C1164 334.3 1193 331.7 1222 330.3C1251 329 1280 329 1309 322.3C1338 315.7 1367 302.3 1396.2 305C1425.3 307.7 1454.7 326.3 1483.8 332.3C1513 338.3 1542 331.7 1571 323C1600 314.3 1629 303.7 1658 294.3C1687 285 1716 277 1745.2 288.3C1774.3 299.7 1803.7 330.3 1832.8 347C1862 363.7 1891 366.3 1905.5 367.7L1920 369L1920 339L1905.5 340.3C1891 341.7 1862 344.3 1832.8 328.3C1803.7 312.3 1774.3 277.7 1745.2 264.3C1716 251 1687 259 1658 269.7C1629 280.3 1600 293.7 1571 301.7C1542 309.7 1513 312.3 1483.8 307.7C1454.7 303 1425.3 291 1396.2 291C1367 291 1338 303 1309 305C1280 307 1251 299 1222 295.7C1193 292.3 1164 293.7 1134.8 291.7C1105.7 289.7 1076.3 284.3 1047.2 284.3C1018 284.3 989 289.7 960 277.7C931 265.7 902 236.3 872.8 242.3C843.7 248.3 814.3 289.7 785.2 287C756 284.3 727 237.7 698 221.7C669 205.7 640 220.3 611 233.7C582 247 553 259 523.8 259.7C494.7 260.3 465.3 249.7 436.2 257C407 264.3 378 289.7 349 293.7C320 297.7 291 280.3 262 270.3C233 260.3 204 257.7 174.8 249.7C145.7 241.7 116.3 228.3 87.2 223C58 217.7 29 220.3 14.5 221.7L0 223Z" fill="#e1e1e1"></path><path d="M0 401L14.5 401C29 401 58 401 87.2 401C116.3 401 145.7 401 174.8 401C204 401 233 401 262 401C291 401 320 401 349 401C378 401 407 401 436.2 401C465.3 401 494.7 401 523.8 401C553 401 582 401 611 401C640 401 669 401 698 401C727 401 756 401 785.2 401C814.3 401 843.7 401 872.8 401C902 401 931 401 960 401C989 401 1018 401 1047.2 401C1076.3 401 1105.7 401 1134.8 401C1164 401 1193 401 1222 401C1251 401 1280 401 1309 401C1338 401 1367 401 1396.2 401C1425.3 401 1454.7 401 1483.8 401C1513 401 1542 401 1571 401C1600 401 1629 401 1658 401C1687 401 1716 401 1745.2 401C1774.3 401 1803.7 401 1832.8 401C1862 401 1891 401 1905.5 401L1920 401L1920 367L1905.5 365.7C1891 364.3 1862 361.7 1832.8 345C1803.7 328.3 1774.3 297.7 1745.2 286.3C1716 275 1687 283 1658 292.3C1629 301.7 1600 312.3 1571 321C1542 329.7 1513 336.3 1483.8 330.3C1454.7 324.3 1425.3 305.7 1396.2 303C1367 300.3 1338 313.7 1309 320.3C1280 327 1251 327 1222 328.3C1193 329.7 1164 332.3 1134.8 325.7C1105.7 319 1076.3 303 1047.2 301.7C1018 300.3 989 313.7 960 305C931 296.3 902 265.7 872.8 267.7C843.7 269.7 814.3 304.3 785.2 303.7C756 303 727 267 698 256.3C669 245.7 640 260.3 611 273C582 285.7 553 296.3 523.8 294.3C494.7 292.3 465.3 277.7 436.2 283.7C407 289.7 378 316.3 349 323C320 329.7 291 316.3 262 306.3C233 296.3 204 289.7 174.8 281.7C145.7 273.7 116.3 264.3 87.2 257C58 249.7 29 244.3 14.5 241.7L0 239Z" fill="#ffffff"></path></svg>