<svg width="393" height="393" viewBox="0 0 393 393" fill="none" xmlns="http://www.w3.org/2000/svg">
<path d="M69.7567 166.16C65.2527 200.639 62.5689 235.331 61.7166 270.092C108.857 289.784 153.992 313.967 196.499 342.306C239.011 313.966 284.152 289.783 331.298 270.092C330.445 235.331 327.761 200.639 323.258 166.16M323.258 166.16C337.586 161.346 352.111 156.892 366.783 152.831C313.344 115.369 256.3 83.3333 196.499 57.2007C136.698 83.3388 79.6537 115.38 26.2156 152.847C40.8431 156.885 55.3568 161.324 69.7403 166.16C113.44 180.85 155.839 199.155 196.499 220.885C237.154 199.157 279.565 180.852 323.258 166.16ZM110.53 245.628C113.788 245.628 116.911 244.334 119.215 242.031C121.518 239.728 122.812 236.604 122.812 233.347C122.812 230.089 121.518 226.966 119.215 224.662C116.911 222.359 113.788 221.065 110.53 221.065C107.273 221.065 104.149 222.359 101.846 224.662C99.5431 226.966 98.2492 230.089 98.2492 233.347C98.2492 236.604 99.5431 239.728 101.846 242.031C104.149 244.334 107.273 245.628 110.53 245.628ZM110.53 245.628V185.45C138.314 168.18 167.013 152.426 196.499 138.257M81.7596 327.388C90.8964 318.274 98.1417 307.444 103.079 295.52C108.017 283.596 110.549 270.815 110.53 257.909V233.347" stroke="#535353" stroke-width="24.5625" stroke-linecap="round" stroke-linejoin="round"/>
</svg>
