<svg width="431" height="431" viewBox="0 0 431 431" fill="none" xmlns="http://www.w3.org/2000/svg">
<path d="M269.375 188.563C269.375 202.851 263.699 216.554 253.595 226.658C243.492 236.761 229.789 242.438 215.5 242.438C201.211 242.438 187.508 236.761 177.405 226.658C167.301 216.554 161.625 202.851 161.625 188.563C161.625 174.274 167.301 160.571 177.405 150.467C187.508 140.364 201.211 134.688 215.5 134.688C229.789 134.688 243.492 140.364 253.595 150.467C263.699 160.571 269.375 174.274 269.375 188.563Z" stroke="white" stroke-width="26.9375" stroke-linecap="round" stroke-linejoin="round"/>
<path d="M350.188 188.563C350.188 316.821 215.5 390.594 215.5 390.594C215.5 390.594 80.8125 316.821 80.8125 188.563C80.8125 152.841 95.0027 118.583 120.262 93.3241C145.52 68.0652 179.779 53.875 215.5 53.875C251.221 53.875 285.48 68.0652 310.738 93.3241C335.997 118.583 350.188 152.841 350.188 188.563Z" stroke="white" stroke-width="26.9375" stroke-linecap="round" stroke-linejoin="round"/>
</svg>
