<svg width="30" height="30" viewBox="0 0 30 30" fill="none" xmlns="http://www.w3.org/2000/svg">
<path fill-rule="evenodd" clip-rule="evenodd" d="M2.8125 5.625C2.8125 5.37636 2.91127 5.1379 3.08709 4.96209C3.2629 4.78627 3.50136 4.6875 3.75 4.6875H21.5625C21.8111 4.6875 22.0496 4.78627 22.2254 4.96209C22.4012 5.1379 22.5 5.37636 22.5 5.625C22.5 5.87364 22.4012 6.1121 22.2254 6.28791C22.0496 6.46373 21.8111 6.5625 21.5625 6.5625H3.75C3.50136 6.5625 3.2629 6.46373 3.08709 6.28791C2.91127 6.1121 2.8125 5.87364 2.8125 5.625ZM2.8125 11.25C2.8125 11.0014 2.91127 10.7629 3.08709 10.5871C3.2629 10.4113 3.50136 10.3125 3.75 10.3125H15.9375C16.1861 10.3125 16.4246 10.4113 16.6004 10.5871C16.7762 10.7629 16.875 11.0014 16.875 11.25C16.875 11.4986 16.7762 11.7371 16.6004 11.9129C16.4246 12.0887 16.1861 12.1875 15.9375 12.1875H3.75C3.50136 12.1875 3.2629 12.0887 3.08709 11.9129C2.91127 11.7371 2.8125 11.4986 2.8125 11.25ZM21.5625 10.3125C21.8111 10.3125 22.0496 10.4113 22.2254 10.5871C22.4012 10.7629 22.5 11.0014 22.5 11.25V23.9875L25.5875 20.9C25.6733 20.8079 25.7768 20.734 25.8918 20.6828C26.0068 20.6315 26.131 20.604 26.2568 20.6018C26.3827 20.5995 26.5078 20.6227 26.6245 20.6698C26.7412 20.717 26.8473 20.7872 26.9363 20.8762C27.0253 20.9652 27.0955 21.0713 27.1427 21.188C27.1898 21.3047 27.213 21.4298 27.2107 21.5557C27.2085 21.6815 27.181 21.8057 27.1297 21.9207C27.0785 22.0357 27.0046 22.1392 26.9125 22.225L22.225 26.9125C22.0492 27.0881 21.8109 27.1867 21.5625 27.1867C21.3141 27.1867 21.0758 27.0881 20.9 26.9125L16.2125 22.225C16.1204 22.1392 16.0465 22.0357 15.9953 21.9207C15.944 21.8057 15.9165 21.6815 15.9143 21.5557C15.912 21.4298 15.9352 21.3047 15.9823 21.188C16.0295 21.0713 16.0997 20.9652 16.1887 20.8762C16.2777 20.7872 16.3838 20.717 16.5005 20.6698C16.6172 20.6227 16.7423 20.5995 16.8682 20.6018C16.994 20.604 17.1182 20.6315 17.2332 20.6828C17.3482 20.734 17.4517 20.8079 17.5375 20.9L20.625 23.9875V11.25C20.625 11.0014 20.7238 10.7629 20.8996 10.5871C21.0754 10.4113 21.3139 10.3125 21.5625 10.3125ZM2.8125 16.875C2.8125 16.6264 2.91127 16.3879 3.08709 16.2121C3.2629 16.0363 3.50136 15.9375 3.75 15.9375H15.9375C16.1861 15.9375 16.4246 16.0363 16.6004 16.2121C16.7762 16.3879 16.875 16.6264 16.875 16.875C16.875 17.1236 16.7762 17.3621 16.6004 17.5379C16.4246 17.7137 16.1861 17.8125 15.9375 17.8125H3.75C3.50136 17.8125 3.2629 17.7137 3.08709 17.5379C2.91127 17.3621 2.8125 17.1236 2.8125 16.875Z" fill="#5C5C5C"/>
</svg>
