<svg width="569" height="497" viewBox="0 0 569 497" fill="none" xmlns="http://www.w3.org/2000/svg">
<path d="M304.25 584.5C366.372 584.496 426.734 563.861 475.857 525.835C524.981 487.809 560.085 434.545 575.657 374.406M304.25 584.5C242.128 584.496 181.766 563.861 132.643 525.835C83.5191 487.809 48.4154 434.545 32.8436 374.406M304.25 584.5C381.63 584.5 444.375 459.01 444.375 304.25C444.375 149.49 381.63 24.0003 304.25 24.0003M304.25 584.5C226.87 584.5 164.125 459.01 164.125 304.25C164.125 149.49 226.87 24.0003 304.25 24.0003M575.657 374.406C581.417 351.986 584.5 328.476 584.5 304.25C584.577 256.051 572.164 208.653 548.472 166.679M575.657 374.406C492.614 420.441 399.199 444.524 304.25 444.375C205.789 444.375 113.275 418.997 32.8436 374.406M32.8436 374.406C26.9504 351.487 23.9791 327.915 24.0001 304.25C24.0001 254.272 37.0784 207.315 60.0278 166.679M304.25 24.0003C353.955 23.9795 402.771 37.1831 445.689 62.2564C488.607 87.3296 524.081 123.37 548.472 166.679M304.25 24.0003C254.545 23.9795 205.729 37.1831 162.811 62.2564C119.893 87.3296 84.4191 123.37 60.0278 166.679M548.472 166.679C480.673 225.404 393.947 257.671 304.25 257.542C210.896 257.542 125.513 223.289 60.0278 166.679" stroke="white" stroke-width="46.7083" stroke-linecap="round" stroke-linejoin="round"/>
</svg>
