<svg width="1423" height="652" viewBox="0 0 1423 652" fill="none" xmlns="http://www.w3.org/2000/svg">
<rect width="1384" height="541" rx="97" fill="#A0A7EE"/>
<path d="M1119.25 628.5C1181.37 628.496 1241.73 607.861 1290.86 569.835C1339.98 531.809 1375.08 478.545 1390.66 418.406M1119.25 628.5C1057.13 628.496 996.766 607.861 947.643 569.835C898.519 531.809 863.415 478.545 847.844 418.406M1119.25 628.5C1196.63 628.5 1259.38 503.01 1259.38 348.25C1259.38 193.49 1196.63 68.0003 1119.25 68.0003M1119.25 628.5C1041.87 628.5 979.125 503.01 979.125 348.25C979.125 193.49 1041.87 68.0003 1119.25 68.0003M1390.66 418.406C1396.42 395.986 1399.5 372.476 1399.5 348.25C1399.58 300.051 1387.16 252.653 1363.47 210.679M1390.66 418.406C1307.61 464.441 1214.2 488.524 1119.25 488.375C1020.79 488.375 928.275 462.997 847.844 418.406M847.844 418.406C841.95 395.487 838.979 371.915 839 348.25C839 298.272 852.078 251.315 875.028 210.679M1119.25 68.0003C1168.96 67.9795 1217.77 81.1831 1260.69 106.256C1303.61 131.33 1339.08 167.37 1363.47 210.679M1119.25 68.0003C1069.54 67.9795 1020.73 81.1831 977.811 106.256C934.893 131.33 899.419 167.37 875.028 210.679M1363.47 210.679C1295.67 269.404 1208.95 301.671 1119.25 301.542C1025.9 301.542 940.513 267.289 875.028 210.679" stroke="white" stroke-width="46.7083" stroke-linecap="round" stroke-linejoin="round"/>
</svg>
